<?xml version="1.0" encoding="utf-8"?>
<!-- Generator: Adobe Illustrator 19.2.1, SVG Export Plug-In . SVG Version: 6.00 Build 0)  -->
<svg version="1.1" id="Capa_1" xmlns="http://www.w3.org/2000/svg" xmlns:xlink="http://www.w3.org/1999/xlink" x="0px" y="0px"
	 viewBox="0 0 512 512" style="enable-background:new 0 0 512 512;" xml:space="preserve">
<style type="text/css">
	.st0{fill:#ABABAB;}
</style>
<g>
	<g>
		<path class="st0" d="M488.5,52.1H23.5C10.6,52.1,0,62.7,0,75.6v336.7c0,13,10.6,23.5,23.5,23.5h288.6c4.1,0,7.5-3.4,7.5-7.5
			s-3.4-7.5-7.5-7.5H23.5c-4.7,0-8.5-3.8-8.5-8.5V75.6c0-4.7,3.8-8.5,8.5-8.5h464.9c4.7,0,8.5,3.8,8.5,8.5v336.7
			c0,4.7-3.8,8.5-8.5,8.5h-64.1c-4.1,0-7.5,3.4-7.5,7.5s3.4,7.5,7.5,7.5h64.1c13,0,23.5-10.6,23.5-23.5V75.6
			C512,62.7,501.4,52.1,488.5,52.1z"/>
	</g>
</g>
<g>
	<g>
		<path class="st0" d="M472.4,132.3c-22.4,0-40.6-18.2-40.6-40.6c0-4.1-3.4-7.5-7.5-7.5H87.7c-4.1,0-7.5,3.4-7.5,7.5
			c0,22.4-18.2,40.6-40.6,40.6c-4.1,0-7.5,3.4-7.5,7.5v208.4c0,4.1,3.4,7.5,7.5,7.5c22.4,0,40.6,18.2,40.6,40.6
			c0,4.1,3.4,7.5,7.5,7.5h224.5c4.1,0,7.5-3.4,7.5-7.5s-3.4-7.5-7.5-7.5H94.7c-3.3-24.7-22.9-44.3-47.6-47.6V146.8
			c24.7-3.3,44.3-22.9,47.6-47.6h322.7c3.3,24.7,22.9,44.3,47.6,47.6v194.4c-27.1,3.7-48.1,27-48.1,55.1c0,4.1,3.4,7.5,7.5,7.5
			s7.5-3.4,7.5-7.5c0-22.4,18.2-40.6,40.6-40.6c4.1,0,7.5-3.4,7.5-7.5V139.8C479.9,135.6,476.6,132.3,472.4,132.3z"/>
	</g>
</g>
<g>
	<g>
		<path class="st0" d="M39.6,84.2L39.6,84.2c-4.2,0-7.5,3.4-7.5,7.5s3.4,7.5,7.5,7.5c4.1,0,7.5-3.4,7.5-7.5S43.8,84.2,39.6,84.2z"/>
	</g>
</g>
<g>
	<g>
		<path class="st0" d="M472.5,388.8L472.5,388.8c-4.2,0-7.5,3.4-7.5,7.5s3.4,7.5,7.5,7.5s7.5-3.4,7.5-7.5
			C480,392.1,476.7,388.8,472.5,388.8z"/>
	</g>
</g>
<g>
	<g>
		<path class="st0" d="M39.6,388.8L39.6,388.8c-4.2,0-7.5,3.4-7.5,7.5s3.4,7.5,7.5,7.5s7.5-3.4,7.5-7.5S43.8,388.8,39.6,388.8z"/>
	</g>
</g>
<g>
	<g>
		<path class="st0" d="M472.4,84.2L472.4,84.2c-4.2,0-7.5,3.4-7.5,7.5s3.4,7.5,7.5,7.5s7.5-3.4,7.5-7.5
			C479.9,87.5,476.6,84.2,472.4,84.2z"/>
	</g>
</g>
<g>
	<g>
		<path class="st0" d="M368.2,260.5c-30.7,0-55.6,24.9-55.6,55.6c0,18.9,9.5,35.7,24,45.7v90.5c0,2.8,1.5,5.3,4,6.6
			c1.1,0.6,2.3,0.9,3.5,0.9c1.5,0,2.9-0.4,4.2-1.3l19.9-13.3l19.9,13.3c2.3,1.5,5.3,1.7,7.7,0.4c2.4-1.3,4-3.8,4-6.6v-90.5
			c14.5-10,24-26.8,24-45.7C423.8,285.5,398.9,260.5,368.2,260.5z M384.8,438.4l-12.4-8.3c-2.5-1.7-5.8-1.7-8.3,0l-12.4,8.3v-69.2
			c5.2,1.6,10.8,2.5,16.5,2.5c5.8,0,11.3-0.9,16.5-2.5V438.4z M368.2,356.7c-22.4,0-40.6-18.2-40.6-40.6s18.2-40.6,40.6-40.6
			s40.6,18.2,40.6,40.6S390.6,356.7,368.2,356.7z"/>
	</g>
</g>
<g>
	<g>
		<path class="st0" d="M385.9,317.7c-3.6-2.1-8.2-0.9-10.2,2.7c-1.5,2.6-4.4,4.3-7.4,4.3c-4.7,0-8.5-3.8-8.5-8.5
			c0-3,1.6-5.9,4.3-7.4c3.6-2.1,4.8-6.7,2.7-10.2c-2.1-3.6-6.7-4.8-10.2-2.7c-7.3,4.2-11.8,12-11.8,20.4c0,13,10.6,23.5,23.5,23.5
			c8.4,0,16.2-4.5,20.4-11.8C390.7,324.3,389.5,319.7,385.9,317.7z"/>
	</g>
</g>
<g>
	<g>
		<path class="st0" d="M312.1,140.3H199.9c-4.1,0-7.5,3.4-7.5,7.5s3.4,7.5,7.5,7.5h112.2c4.1,0,7.5-3.4,7.5-7.5
			C319.6,143.6,316.3,140.3,312.1,140.3z"/>
	</g>
</g>
<g>
	<g>
		<path class="st0" d="M199.9,172.3h-32.1c-4.1,0-7.5,3.4-7.5,7.5s3.4,7.5,7.5,7.5h32.1c4.1,0,7.5-3.4,7.5-7.5
			S204,172.3,199.9,172.3z"/>
	</g>
</g>
<g>
	<g>
		<path class="st0" d="M344.2,172.3H232c-4.1,0-7.5,3.4-7.5,7.5s3.4,7.5,7.5,7.5h112.2c4.1,0,7.5-3.4,7.5-7.5
			S348.3,172.3,344.2,172.3z"/>
	</g>
</g>
<g>
	<g>
		<path class="st0" d="M392.3,228.5H119.7c-4.1,0-7.5,3.4-7.5,7.5s3.4,7.5,7.5,7.5h272.5c4.1,0,7.5-3.4,7.5-7.5
			C399.8,231.8,396.4,228.5,392.3,228.5z"/>
	</g>
</g>
<g>
	<g>
		<path class="st0" d="M304.1,260.5H183.9c-4.1,0-7.5,3.4-7.5,7.5s3.4,7.5,7.5,7.5h120.2c4.1,0,7.5-3.4,7.5-7.5
			C311.6,263.9,308.2,260.5,304.1,260.5z"/>
	</g>
</g>
<g>
	<g>
		<path class="st0" d="M151.8,260.5h-32.1c-4.1,0-7.5,3.4-7.5,7.5s3.4,7.5,7.5,7.5h32.1c4.1,0,7.5-3.4,7.5-7.5
			S155.9,260.5,151.8,260.5z"/>
	</g>
</g>
<g>
	<g>
		<path class="st0" d="M288.1,292.6H119.7c-4.1,0-7.5,3.4-7.5,7.5s3.4,7.5,7.5,7.5h168.3c4.1,0,7.5-3.4,7.5-7.5
			S292.2,292.6,288.1,292.6z"/>
	</g>
</g>
<g>
	<g>
		<path class="st0" d="M232,324.7H119.7c-4.1,0-7.5,3.4-7.5,7.5s3.4,7.5,7.5,7.5H232c4.1,0,7.5-3.4,7.5-7.5
			C239.5,328,236.1,324.7,232,324.7z"/>
	</g>
</g>
<g>
	<g>
		<path class="st0" d="M288.1,324.7H264c-4.1,0-7.5,3.4-7.5,7.5s3.4,7.5,7.5,7.5h24.1c4.1,0,7.5-3.4,7.5-7.5
			C295.6,328,292.2,324.7,288.1,324.7z"/>
	</g>
</g>
</svg>
