<?xml version="1.0" encoding="utf-8"?>
<!-- Generator: Adobe Illustrator 19.2.1, SVG Export Plug-In . SVG Version: 6.00 Build 0)  -->
<svg version="1.1" id="Layer_1" xmlns="http://www.w3.org/2000/svg" xmlns:xlink="http://www.w3.org/1999/xlink" x="0px" y="0px"
	 viewBox="0 0 33.3 33.3" style="enable-background:new 0 0 33.3 33.3;" xml:space="preserve">
<style type="text/css">
	.st0{fill:#ABABAB;}
</style>
<g id="Capa_1">
	<g>
		<g>
			<g>
				<g>
					<path class="st0" d="M27.6,33.3H5.7c-1.4,0-2.5-1.1-2.5-2.5V2.5C3.2,1.1,4.3,0,5.7,0h15.9c0.3,0,0.5,0.2,0.5,0.5S21.9,1,21.6,1
						H5.7C4.9,1,4.2,1.7,4.2,2.5v28.3c0,0.8,0.7,1.5,1.5,1.5h21.9c0.8,0,1.5-0.7,1.5-1.5V8.7c0-0.3,0.2-0.5,0.5-0.5s0.5,0.2,0.5,0.5
						v22.1C30.1,32.2,29,33.3,27.6,33.3z"/>
					<path class="st0" d="M29.6,9.2h-8c-0.3,0-0.5-0.2-0.5-0.5v-8c0-0.3,0.2-0.5,0.5-0.5s0.5,0.2,0.5,0.5v7.5h7.5
						c0.3,0,0.5,0.2,0.5,0.5S29.9,9.2,29.6,9.2z"/>
					<path class="st0" d="M29.6,9.2c-0.1,0-0.3-0.1-0.4-0.2l-8-8.2c-0.2-0.2-0.2-0.5,0-0.7C21.4,0,21.8,0,22,0.2l8,8.2
						c0.2,0.2,0.2,0.5,0,0.7C29.8,9.2,29.7,9.2,29.6,9.2z"/>
				</g>
			</g>
		</g>
	</g>
</g>
<g id="Layer_2">
	<g>
		<path id="rect34754" class="st0" d="M12.1,9.5c-0.1,0-0.2,0-0.3,0.1l-1.3,1.3c-0.2,0.2-0.2,0.4,0,0.6s0.4,0.2,0.6,0l0,0l0.6-0.6
			v3.7h-0.9c-0.2,0-0.4,0.2-0.4,0.4s0.2,0.4,0.4,0.4l0,0H12h0.1H13c0.2,0,0.4-0.2,0.4-0.4s-0.2-0.4-0.4-0.4l0,0h-0.4V9.9
			C12.5,9.7,12.3,9.5,12.1,9.5L12.1,9.5z M7.1,9.5c-0.8,0-1.5,0.7-1.5,1.5v3c0,0.8,0.7,1.5,1.5,1.5s1.5-0.7,1.5-1.5v-3
			C8.6,10.2,7.9,9.5,7.1,9.5z M7.1,10.4c0.4,0,0.6,0.3,0.6,0.6v3c0,0.4-0.3,0.6-0.6,0.6c-0.4,0-0.6-0.3-0.6-0.6v-3
			C6.4,10.6,6.7,10.4,7.1,10.4z M7.3,17.3c-0.1,0-0.2,0-0.3,0.1l-1.3,1.3c-0.2,0.2-0.2,0.4,0,0.6s0.4,0.2,0.6,0l0.6-0.6v3.7H6
			c-0.2,0-0.4,0.2-0.4,0.4s0.2,0.4,0.4,0.4l0,0h1.2h0.1h0.8c0.2,0,0.4-0.2,0.4-0.4c0-0.2-0.2-0.4-0.4-0.4l0,0H7.7v-4.8
			C7.7,17.5,7.5,17.3,7.3,17.3L7.3,17.3z M16.9,17.3c-0.1,0-0.2,0-0.3,0.1l-1.3,1.3c-0.2,0.2-0.2,0.4,0,0.6s0.4,0.2,0.6,0l0,0
			l0.6-0.6v3.7h-0.9c-0.2,0-0.4,0.2-0.4,0.4s0.2,0.4,0.4,0.4l0,0h1.2h0.1h0.8c0.2,0,0.4-0.2,0.4-0.4c0-0.2-0.2-0.4-0.4-0.4l0,0h-0.4
			v-4.8C17.3,17.5,17.1,17.3,16.9,17.3L16.9,17.3z M11.9,17.3c-0.8,0-1.5,0.7-1.5,1.5v3c0,0.8,0.7,1.5,1.5,1.5s1.5-0.7,1.5-1.5v-3
			C13.4,18,12.7,17.3,11.9,17.3z M11.9,18.2c0.4,0,0.6,0.3,0.6,0.6v3c0,0.4-0.3,0.6-0.6,0.6c-0.4,0-0.6-0.3-0.6-0.6v-3
			C11.2,18.5,11.5,18.2,11.9,18.2z M7.3,25.1c-0.1,0-0.2,0-0.3,0.1l-1.3,1.3c-0.2,0.2-0.2,0.4,0,0.6s0.4,0.2,0.6,0l0.6-0.6v3.7H6
			c-0.2,0-0.4,0.2-0.4,0.4S5.8,31,6,31l0,0h1.2h0.1h0.8c0.2,0,0.4-0.2,0.4-0.4s-0.2-0.4-0.4-0.4l0,0H7.7v-4.8
			C7.7,25.3,7.5,25.1,7.3,25.1L7.3,25.1z M12.1,25.1c-0.1,0-0.2,0-0.3,0.1l-1.3,1.3c-0.2,0.2-0.2,0.4,0,0.6s0.4,0.2,0.6,0l0.6-0.6
			v3.7h-0.9c-0.2,0-0.4,0.2-0.4,0.4s0.2,0.4,0.4,0.4l0,0H12h0.1H13c0.2,0,0.4-0.2,0.4-0.4s-0.2-0.4-0.4-0.4l0,0h-0.4v-4.8
			C12.5,25.3,12.3,25.1,12.1,25.1L12.1,25.1z M16.9,25.1c-0.1,0-0.2,0-0.3,0.1l-1.3,1.3c-0.2,0.2-0.2,0.4,0,0.6s0.4,0.2,0.6,0l0,0
			l0.6-0.6v3.7h-0.9c-0.2,0-0.4,0.2-0.4,0.4s0.2,0.4,0.4,0.4l0,0h1.2h0.1h0.8c0.2,0,0.4-0.2,0.4-0.4s-0.2-0.4-0.4-0.4l0,0h-0.4v-4.8
			C17.3,25.3,17.1,25.1,16.9,25.1L16.9,25.1z M21.6,25.1c-0.1,0-0.2,0-0.3,0.1L20,26.5c-0.2,0.2-0.2,0.4,0,0.6s0.4,0.2,0.6,0l0,0
			l0.6-0.6v3.7h-0.9c-0.2,0-0.4,0.2-0.4,0.4c0,0.2,0.2,0.4,0.4,0.4l0,0h1.2h0.1h0.8c0.2,0,0.4-0.2,0.4-0.4s-0.2-0.4-0.4-0.4l0,0H22
			v-4.8C22.1,25.3,21.9,25.1,21.6,25.1L21.6,25.1z M26.2,25.1c-0.8,0-1.5,0.7-1.5,1.5v3c0,0.8,0.7,1.5,1.5,1.5s1.5-0.7,1.5-1.5v-3
			C27.7,25.8,27,25.1,26.2,25.1z M26.2,26c0.4,0,0.6,0.3,0.6,0.6v3c0,0.4-0.3,0.6-0.6,0.6s-0.6-0.3-0.6-0.6v-3
			C25.6,26.3,25.8,26,26.2,26z M7.3,1.9C7.2,1.9,7.1,2,7,2.1L5.7,3.4C5.5,3.5,5.5,3.8,5.7,4c0.2,0.2,0.4,0.2,0.6,0l0,0l0.6-0.6v3.7
			H6c-0.2,0-0.4,0.2-0.4,0.4C5.6,7.8,5.8,8,6,8l0,0h1.2h0.1h0.8c0.2,0,0.4-0.2,0.4-0.4c0-0.2-0.2-0.4-0.4-0.4l0,0H7.7V2.4
			C7.7,2.1,7.5,1.9,7.3,1.9L7.3,1.9z"/>
	</g>
</g>
</svg>
