<?xml version="1.0" encoding="utf-8"?>
<!-- Generator: Adobe Illustrator 19.2.1, SVG Export Plug-In . SVG Version: 6.00 Build 0)  -->
<svg version="1.1" id="Layer_1" xmlns="http://www.w3.org/2000/svg" xmlns:xlink="http://www.w3.org/1999/xlink" x="0px" y="0px"
	 viewBox="0 0 512 512" style="enable-background:new 0 0 512 512;" xml:space="preserve">
<style type="text/css">
	.st0{fill:#ABABAB;}
</style>
<g>
	<g>
		<path class="st0" d="M457.1,0H148.9c-5.1,0-9.2,4.1-9.2,9.2s4.1,9.2,9.2,9.2h308.3c20.1,0,36.5,16.4,36.5,36.5v402.3
			c0,20.1-16.4,36.5-36.5,36.5h-53.5c-5.1,0-9.2,4.1-9.2,9.2s4.1,9.2,9.2,9.2h53.5c30.3,0,54.9-24.6,54.9-54.9V54.9
			C512,24.6,487.4,0,457.1,0z"/>
	</g>
</g>
<g>
	<g>
		<path class="st0" d="M366.9,493.6h-312c-20.1,0-36.5-16.4-36.5-36.5V54.9c0-20.1,16.4-36.5,36.5-36.5h57.2c5.1,0,9.2-4.1,9.2-9.2
			S117.2,0,112.1,0H54.9C24.6,0,0,24.6,0,54.9v402.3C0,487.4,24.6,512,54.9,512h312c5.1,0,9.2-4.1,9.2-9.2
			C376.1,497.7,371.9,493.6,366.9,493.6z"/>
	</g>
</g>
<g>
	<g>
		<g>
			<path class="st0" d="M199,307.3h96l18-104.6h-96L199,307.3z M232.5,221.1h58.7l-11.7,67.9h-58.7L232.5,221.1z"/>
			<path class="st0" d="M386.9,221.1c19,0,35-16,35-35c0-19.3-15.7-35-35-35h-11.9l6.6-39.4c1.6-10.2-1.3-20.6-8.1-28.6
				c-6.6-7.8-16.2-12.3-26.2-12.3c-18.2,0-32.7,11.9-35.3,29l-8.6,51.3h-59.1l7-39.3l0.1-0.4c1.3-10.4-1.9-20.9-8.8-28.8
				c-6.7-7.6-16-11.8-26.1-11.8c-17.9,0-32.2,11.9-34.8,29l-8.6,51.3H143c-18.9,0-35,16-35,35c0,18.9,16,35,35,35h17.8l-11.7,67.9
				h-24c-19.3,0-35,15.7-35,35c0,19.6,15.4,35,35,35h11.9l-7.1,41.3l0,0.2c-1.6,10.8,1.3,21.1,8,28.9c6.5,7.5,16.1,11.9,26.4,11.9
				c20.7,0,32.8-15,35.3-29l9.1-53.3h59.1l-7.5,41.2l0,0.2c-1.6,10.2,1.3,20.6,8.1,28.5c6.7,7.9,16.5,12.4,26.8,12.4
				c17.5,0,32.2-12.2,34.8-29l9.1-53.3h29.4c19.3,0,35-15.7,35-35c0-19.6-15.4-35-35-35h-17.3l11.7-67.9L386.9,221.1L386.9,221.1z
				 M368.5,307.3c9.3,0,16.6,7.3,16.6,16.6c0,9-7.6,16.6-16.6,16.6h-44.9l-11.7,68.7c-1.3,7.9-8.3,13.6-16.7,13.6
				c-5,0-9.5-2.1-12.8-5.9c-3.3-3.8-4.7-8.8-3.9-13.6l11.4-62.8h-96.6L181.5,409c-1.2,6.9-7.1,13.8-17.2,13.8c-5,0-9.4-2-12.5-5.5
				c-3.2-3.7-4.5-8.7-3.7-14.1l10.7-62.7h-33.7c-9.3,0-16.6-7.3-16.6-16.6c0-9,7.6-16.6,16.6-16.6h39.5l18-104.6H143
				c-8.8,0-16.6-7.8-16.6-16.6c0-8.8,7.8-16.6,16.6-16.6h45.4l11.2-66.6l0-0.1c1.2-8.1,8-13.5,16.7-13.5c4.8,0,9.1,2,12.3,5.6
				c3.4,3.9,5,9,4.4,14.1l-10.8,60.6h96.6l11.2-66.6l0-0.1c1.2-8.1,8.2-13.5,17.2-13.5c4.7,0,9.1,2.1,12.2,5.8
				c3.3,3.9,4.8,8.9,4,13.7l-10.2,60.8h33.7c9,0,16.6,7.6,16.6,16.6c0,8.8-7.8,16.6-16.6,16.6h-39.5l-18,104.6L368.5,307.3
				L368.5,307.3z"/>
		</g>
	</g>
</g>
</svg>
