<?xml version="1.0" encoding="utf-8"?>
<!-- Generator: Adobe Illustrator 19.2.1, SVG Export Plug-In . SVG Version: 6.00 Build 0)  -->
<svg version="1.1" id="Layer_1" xmlns="http://www.w3.org/2000/svg" xmlns:xlink="http://www.w3.org/1999/xlink" x="0px" y="0px"
	 viewBox="0 0 512 512" style="enable-background:new 0 0 512 512;" xml:space="preserve">
<style type="text/css">
	.st0{fill:#ABABAB;}
</style>
<g>
	<g>
		<path class="st0" d="M387.5,235.3c-4.4-0.7-8.5,2.2-9.3,6.5l-12.5,72.7c-0.7,4.4,2.2,8.5,6.5,9.3c0.5,0.1,0.9,0.1,1.4,0.1
			c3.8,0,7.2-2.8,7.9-6.7l12.5-72.7C394.8,240.2,391.9,236,387.5,235.3z"/>
	</g>
</g>
<g>
	<g>
		<path class="st0" d="M408.5,120.2L357,102.4c-4.2-1.4-8.8,0.8-10.2,5c-1.4,4.2,0.8,8.7,5,10.2l45.2,15.6l-6.9,40.3
			c-0.7,4.4,2.2,8.5,6.5,9.3c0.5,0.1,0.9,0.1,1.4,0.1c3.8,0,7.2-2.8,7.9-6.7l8.1-47C414.5,125.3,412.3,121.5,408.5,120.2z"/>
	</g>
</g>
<g>
	<g>
		<path class="st0" d="M335.6,94.9l-34.2-11.8c-4.2-1.4-8.8,0.8-10.2,5c-1.4,4.2,0.8,8.7,5,10.2l34.2,11.8c0.9,0.3,1.8,0.4,2.6,0.4
			c3.3,0,6.4-2.1,7.6-5.4C342,101,339.8,96.4,335.6,94.9z"/>
	</g>
</g>
<g>
	<g>
		<path class="st0" d="M270.5,223.6c23.3-6.4,40.6-27.8,40.6-53.1c0-30.4-24.7-55-55-55s-55,24.7-55,55c0,25.3,17.2,46.7,40.6,53.1
			c-40,6.9-70.5,41.8-70.5,83.7v42.8c0,4.4,3.6,8,8,8H333c4.4,0,8-3.6,8-8v-42.8C341,265.4,310.5,230.5,270.5,223.6z M217,170.5
			c0-21.5,17.5-39,39-39s39,17.5,39,39s-17.5,39-39,39S217,192,217,170.5z M324.9,342H187.1v-34.7c0-38,30.9-68.9,68.9-68.9
			s68.9,30.9,68.9,68.9L324.9,342L324.9,342z"/>
	</g>
</g>
<g>
	<g>
		<path class="st0" d="M444.7,98.8L258.6,34.4c-1.7-0.6-3.5-0.6-5.2,0L67.3,98.8c-3.7,1.3-5.9,5.1-5.3,8.9L106.4,367
			c0.4,2.1,1.6,4,3.3,5.2l141.7,99.2c1.4,1,3,1.4,4.6,1.4c1.6,0,3.2-0.5,4.6-1.4l141.7-99.2c1.8-1.2,2.9-3.1,3.3-5.2L450,107.7
			C450.7,103.9,448.5,100.1,444.7,98.8z M390.3,361l-134.3,94l-134.3-94L78.9,111.7L256,50.4l177.1,61.3L390.3,361z"/>
	</g>
</g>
<g>
	<g>
		<path class="st0" d="M481,77.4l-222.3-77c-1.7-0.6-3.5-0.6-5.2,0L31,77.4c-3.7,1.3-5.9,5.1-5.3,8.9l51.3,299.3
			c0.4,2.1,1.6,4,3.3,5.2l171,119.7c1.4,1,3,1.4,4.6,1.4c1.6,0,3.2-0.5,4.6-1.4l171-119.7c1.8-1.2,2.9-3.1,3.3-5.2l51.3-299.3
			C486.9,82.5,484.7,78.7,481,77.4z M419.7,379.6L256,494.2L92.3,379.6L42.7,90.3L256,16.5l213.3,73.8L419.7,379.6z"/>
	</g>
</g>
</svg>
