<?xml version="1.0" encoding="utf-8"?>
<!-- Generator: Adobe Illustrator 19.2.1, SVG Export Plug-In . SVG Version: 6.00 Build 0)  -->
<svg version="1.1" id="Capa_1" xmlns="http://www.w3.org/2000/svg" xmlns:xlink="http://www.w3.org/1999/xlink" x="0px" y="0px"
	 viewBox="0 0 511 511" style="enable-background:new 0 0 511 511;" xml:space="preserve">
<style type="text/css">
	.st0{fill:#ABABAB;}
</style>
<g>
	<path class="st0" d="M479.5,132h-448C14.1,132,0,146.1,0,163.5v96C0,276.9,14.1,291,31.5,291h280c4.1,0,7.5-3.4,7.5-7.5
		s-3.4-7.5-7.5-7.5h-280c-9.1,0-16.5-7.4-16.5-16.5v-96c0-9.1,7.4-16.5,16.5-16.5h448c9.1,0,16.5,7.4,16.5,16.5v72
		c0,4.1,3.4,7.5,7.5,7.5s7.5-3.4,7.5-7.5v-72C511,146.1,496.9,132,479.5,132z"/>
	<path class="st0" d="M479,253.2v-9.7c0-35-28.5-63.5-63.5-63.5S352,208.5,352,243.5v9.7c-9.3,3.1-16,11.9-16,22.3v80
		c0,13,10.5,23.5,23.5,23.5h112c13,0,23.5-10.5,23.5-23.5v-80C495,265.2,488.3,256.4,479,253.2z M415.5,195
		c26.7,0,48.5,21.8,48.5,48.5v8.5h-97v-8.5C367,216.8,388.8,195,415.5,195z M480,355.5c0,4.7-3.8,8.5-8.5,8.5h-112
		c-4.7,0-8.5-3.8-8.5-8.5v-80c0-4.7,3.8-8.5,8.5-8.5h112c4.7,0,8.5,3.8,8.5,8.5V355.5z"/>
	<path class="st0" d="M121.7,191.8c-2.1-3.6-6.7-4.8-10.2-2.7L95,198.5v-19c0-4.1-3.4-7.5-7.5-7.5s-7.5,3.4-7.5,7.5v19L63.5,189
		c-3.6-2.1-8.2-0.8-10.2,2.7c-2.1,3.6-0.8,8.2,2.7,10.2l16.5,9.5L56,221c-3.6,2.1-4.8,6.7-2.7,10.2c1.4,2.4,3.9,3.8,6.5,3.8
		c1.3,0,2.6-0.3,3.7-1l16.5-9.5v19c0,4.1,3.4,7.5,7.5,7.5s7.5-3.4,7.5-7.5v-19l16.5,9.5c1.2,0.7,2.5,1,3.7,1c2.6,0,5.1-1.3,6.5-3.8
		c2.1-3.6,0.8-8.2-2.7-10.2l-16.5-9.5L119,202C122.6,199.9,123.8,195.3,121.7,191.8z"/>
	<path class="st0" d="M217.7,191.8c-2.1-3.6-6.7-4.8-10.2-2.7l-16.5,9.5v-19c0-4.1-3.4-7.5-7.5-7.5s-7.5,3.4-7.5,7.5v19l-16.5-9.5
		c-3.6-2.1-8.2-0.8-10.2,2.7c-2.1,3.6-0.8,8.2,2.7,10.2l16.5,9.5L152,221c-3.6,2.1-4.8,6.7-2.7,10.2c1.4,2.4,3.9,3.8,6.5,3.8
		c1.3,0,2.6-0.3,3.7-1l16.5-9.5v19c0,4.1,3.4,7.5,7.5,7.5s7.5-3.4,7.5-7.5v-19l16.5,9.5c1.2,0.7,2.5,1,3.7,1c2.6,0,5.1-1.3,6.5-3.8
		c2.1-3.6,0.8-8.2-2.7-10.2l-16.5-9.5L215,202C218.6,199.9,219.8,195.3,217.7,191.8z"/>
	<path class="st0" d="M313.7,191.8c-2.1-3.6-6.7-4.8-10.2-2.7l-16.5,9.5v-19c0-4.1-3.4-7.5-7.5-7.5s-7.5,3.4-7.5,7.5v19l-16.5-9.5
		c-3.6-2.1-8.2-0.8-10.2,2.7c-2.1,3.6-0.8,8.2,2.7,10.2l16.5,9.5L248,221c-3.6,2.1-4.8,6.7-2.7,10.2c1.4,2.4,3.9,3.8,6.5,3.8
		c1.3,0,2.6-0.3,3.7-1l16.5-9.5v19c0,4.1,3.4,7.5,7.5,7.5s7.5-3.4,7.5-7.5v-19l16.5,9.5c1.2,0.7,2.5,1,3.7,1c2.6,0,5.1-1.3,6.5-3.8
		c2.1-3.6,0.8-8.2-2.7-10.2l-16.5-9.5L311,202C314.5,199.9,315.8,195.3,313.7,191.8z"/>
	<path class="st0" d="M415.5,284c-13,0-23.5,10.5-23.5,23.5c0,10.3,6.7,19.1,16,22.3v9.7c0,4.1,3.4,7.5,7.5,7.5s7.5-3.4,7.5-7.5
		v-9.7c9.3-3.1,16-11.9,16-22.3C439,294.5,428.5,284,415.5,284z M415.5,316c-4.7,0-8.5-3.8-8.5-8.5s3.8-8.5,8.5-8.5s8.5,3.8,8.5,8.5
		S420.2,316,415.5,316z"/>
</g>
</svg>
