<?xml version="1.0" encoding="utf-8"?>
<!-- Generator: Adobe Illustrator 19.2.1, SVG Export Plug-In . SVG Version: 6.00 Build 0)  -->
<svg version="1.1" id="Layer_1" xmlns="http://www.w3.org/2000/svg" xmlns:xlink="http://www.w3.org/1999/xlink" x="0px" y="0px"
	 viewBox="0 0 512 512" style="enable-background:new 0 0 512 512;" xml:space="preserve">
<style type="text/css">
	.st0{fill:#ABABAB;}
	.st1{font-family:'Comfortaa-Bold';}
	.st2{font-size:42.8939px;}
</style>
<g id="Capa_1">
	<g>
		<g>
			<g>
				<path class="st0" d="M337.9,75c-4.1-5.4-10.1-8.9-16.9-9.9c-6.8-0.9-13.5,0.8-18.9,4.9c-5.4,4.1-8.9,10.1-9.9,16.9
					c-0.9,6.8,0.8,13.5,4.9,18.9c4.1,5.4,10.1,8.9,16.9,9.9c6.8,0.9,13.5-0.8,18.9-4.9C344.2,102.3,346.4,86.3,337.9,75z
					 M327.3,103.4c-3.5,2.6-7.7,3.7-12.1,3.2c-4.3-0.6-8.1-2.8-10.7-6.3c-2.6-3.5-3.7-7.7-3.2-12.1c0.6-4.3,2.8-8.1,6.3-10.7
					s7.7-3.7,12.1-3.2c4.3,0.6,8.1,2.8,10.7,6.3c2.6,3.5,3.7,7.7,3.2,12.1C333,97,330.8,100.8,327.3,103.4z"/>
			</g>
		</g>
		<g>
			<g>
				<path class="st0" d="M360.7,57.7C347,39.6,327.2,26.9,305,22c-22-4.8-45-1.7-64.8,8.7c-2.3,1.2-3.1,4-2,6.3c1.2,2.3,4,3.1,6.3,2
					c17.8-9.4,38.6-12.2,58.5-7.9c20,4.4,37.9,15.8,50.3,32.2c28.7,37.9,21.1,92-16.8,120.7c-18.3,13.8-41,19.8-63.8,16.6
					c-13.9-1.9-26.9-7.1-38-15.1c-0.1-0.1-0.1-0.1-0.2-0.1c-4.4-3.2-8.5-6.7-12.2-10.6c-0.1-0.1-0.1-0.1-0.1-0.1
					c-1.5-1.5-2.7-3-4-4.6c-0.1-0.1-0.3-0.4-0.4-0.5c-0.6-0.8-1.3-1.5-1.8-2.3c-0.6-0.8-1.2-1.6-1.7-2.4c-0.1-0.1-0.3-0.4-0.4-0.5
					c-0.5-0.7-1-1.5-1.4-2.2c-0.2-0.3-0.3-0.6-0.5-0.8c-0.3-0.6-0.7-1.1-1-1.7c-0.3-0.6-0.6-1-0.9-1.5c-0.1-0.3-0.4-0.6-0.5-1
					c-8-14.4-11.7-30.8-10.7-47.4c1.3-20.4,9.7-39.6,23.8-54.2c1.7-1.9,1.8-4.8-0.2-6.6c-1.9-1.7-4.8-1.8-6.6,0.2
					c-15.5,16.2-24.9,37.6-26.3,60c-0.8,11.9,0.8,23.7,4.3,34.9L43.9,257.5c-2,1.5-3.3,3.7-3.7,6.1l-5.1,31.8
					c-0.4,2.6,0.2,5.2,1.8,7.3c1.5,2,3.7,3.3,6.3,3.7l0.1,0l32,3.8c2.4,0.3,4.9-0.3,6.9-1.8l6.7-5.1c1.6-1.2,2.7-2.8,3.3-4.6
					l6.9-21.7c0-0.1,0.1-0.2,0.2-0.2l20.9-0.7c4-0.1,7.5-2.8,8.8-6.6l6.3-19.9c0-0.1,0.1-0.2,0.2-0.2l22.7-0.7c2,0,3.9-0.7,5.4-1.9
					l11.4-8.6c2.1-1.6,2.5-4.4,0.9-6.5s-4.4-2.5-6.5-0.9l-11.4,8.6l-0.1,0.1l-22.7,0.7c-4,0.1-7.5,2.8-8.8,6.6l-6.3,19.9
					c0,0.1-0.1,0.2-0.2,0.2l-21.1,0.4c-4,0.1-7.5,2.8-8.8,6.6l-6.9,21.7l-0.1,0.1l-6.7,5.1c-0.1,0.1-0.1,0.1-0.2,0l-32-3.8
					c0,0-0.1,0-0.2-0.1c-0.1-0.1-0.1-0.1,0-0.2l1.8-11.3L203.7,166c0.1,0.1,0.3,0.4,0.3,0.6c0.3,0.4,0.5,0.8,0.7,1.1
					c0.2,0.3,0.4,0.6,0.6,0.9c0.3,0.4,0.6,0.9,0.9,1.3c0.2,0.2,0.4,0.5,0.5,0.7c0.5,0.6,1,1.4,1.5,2c0.5,0.7,1.1,1.4,1.6,2.1
					c0.2,0.2,0.3,0.4,0.4,0.6c0.4,0.5,0.9,1,1.3,1.5c0.2,0.2,0.3,0.4,0.4,0.6c0.5,0.5,0.9,1.1,1.4,1.6c0.1,0.1,0.2,0.3,0.3,0.4
					c3.2,3.4,6.5,6.7,10.1,9.6l-31.4,23.7c-2.1,1.6-2.5,4.4-0.9,6.5s4.4,2.5,6.5,0.9l33.6-25.4c11.7,7.8,25.2,12.9,39.5,14.9
					c25.3,3.5,50.4-3,70.7-18.4C384.1,159.7,392.5,99.7,360.7,57.7z M199.2,158L48.1,272.2l1.2-7.2c0,0,0-0.1,0.1-0.2l147.6-111.5
					C197.7,154.9,198.4,156.4,199.2,158L199.2,158z"/>
			</g>
		</g>
	</g>
	<text transform="matrix(0.6029 0.7978 -0.7978 0.6029 226.4911 121.499)" class="st0 st1 st2">SK</text>
</g>
<g id="Capa_1_copy">
	<g>
		<g>
			<g>
				<path class="st0" d="M178.1,435c4.1,5.4,10.1,8.9,16.9,9.9s13.5-0.8,18.9-4.9c5.4-4.1,8.9-10.1,9.9-16.9
					c0.9-6.8-0.8-13.5-4.9-18.9s-10.1-8.9-16.9-9.9c-6.8-0.9-13.5,0.8-18.9,4.9C171.9,407.7,169.6,423.8,178.1,435z M188.7,406.6
					c3.5-2.6,7.7-3.7,12.1-3.2c4.3,0.6,8.1,2.8,10.7,6.3c2.6,3.5,3.7,7.7,3.2,12.1c-0.6,4.3-2.8,8.1-6.3,10.7
					c-3.5,2.6-7.7,3.7-12.1,3.2c-4.3-0.6-8.1-2.8-10.7-6.3s-3.7-7.7-3.2-12.1S185.2,409.2,188.7,406.6z"/>
			</g>
		</g>
		<g>
			<g>
				<path class="st0" d="M155.3,452.3c13.7,18.2,33.5,30.9,55.8,35.7c22,4.8,45,1.7,64.8-8.7c2.3-1.2,3.1-4,2-6.3
					c-1.2-2.3-4-3.1-6.3-2c-17.9,9.4-38.6,12.2-58.5,7.9c-20-4.4-37.9-15.8-50.3-32.2c-28.7-37.9-21.1-92,16.8-120.7
					c18.3-13.8,41-19.8,63.8-16.6c13.9,1.9,26.9,7.1,38,15.1c0.1,0.1,0.1,0.1,0.2,0.1c4.4,3.2,8.5,6.7,12.2,10.6
					c0.1,0.1,0.1,0.1,0.1,0.1c1.5,1.5,2.7,3,4,4.6c0.1,0.1,0.3,0.4,0.4,0.5c0.6,0.8,1.3,1.5,1.8,2.3c0.6,0.8,1.2,1.6,1.7,2.4
					c0.1,0.1,0.3,0.4,0.4,0.5c0.5,0.7,1,1.5,1.4,2.2c0.2,0.3,0.3,0.6,0.5,0.8c0.3,0.6,0.7,1.1,1,1.7c0.3,0.6,0.6,1,0.9,1.5
					c0.1,0.3,0.4,0.6,0.5,1c8,14.4,11.7,30.8,10.7,47.4c-1.3,20.4-9.7,39.6-23.8,54.2c-1.7,1.9-1.8,4.8,0.2,6.6
					c1.9,1.7,4.8,1.8,6.6-0.2c15.5-16.2,24.9-37.6,26.3-60c0.8-11.9-0.8-23.7-4.3-34.9l149.9-113.2c2-1.5,3.3-3.7,3.7-6.1l5.1-31.8
					c0.4-2.6-0.2-5.2-1.8-7.3c-1.5-2-3.7-3.3-6.3-3.7l-0.1,0l-32-3.8c-2.4-0.3-4.9,0.3-6.9,1.8l-6.7,5.1c-1.6,1.2-2.7,2.8-3.3,4.6
					l-6.8,22c0,0.1-0.1,0.2-0.2,0.2l-20.9,0.7c-4,0.1-7.5,2.8-8.8,6.6l-6.3,19.9c0,0.1-0.1,0.2-0.2,0.2l-22.7,0.7
					c-2,0-3.9,0.7-5.4,1.9l-11.4,8.6c-2.1,1.6-2.5,4.4-0.9,6.5c1.6,2.1,4.4,2.5,6.5,0.9l11.4-8.6l0.1-0.1l22.7-0.7
					c4-0.1,7.5-2.8,8.8-6.6l6.3-19.9c0-0.1,0.1-0.2,0.2-0.2l20.9-0.7c4-0.1,7.5-2.8,8.8-6.6l7-21.7l0.1-0.1l6.7-5.1
					c0.1-0.1,0.1-0.1,0.2,0l32,3.8c0,0,0.1,0,0.2,0.1c0.1,0.1,0.1,0.1,0,0.2l-1.8,11.3L312.4,343.9c-0.1-0.1-0.3-0.4-0.3-0.6
					c-0.3-0.4-0.5-0.8-0.7-1.1c-0.2-0.3-0.4-0.6-0.6-0.9c-0.3-0.4-0.6-0.9-0.9-1.3c-0.2-0.2-0.4-0.5-0.5-0.7c-0.5-0.6-1-1.4-1.5-2
					c-0.5-0.7-1.1-1.4-1.6-2.1c-0.2-0.2-0.3-0.4-0.4-0.6c-0.4-0.5-0.9-1-1.3-1.5c-0.2-0.2-0.3-0.4-0.4-0.6c-0.5-0.5-0.9-1.1-1.4-1.6
					c-0.1-0.1-0.2-0.3-0.3-0.4c-3.2-3.4-6.5-6.7-10.1-9.6l31.4-23.7c2.1-1.6,2.5-4.4,0.9-6.5c-1.6-2.1-4.4-2.5-6.5-0.9l-33.6,25.4
					c-11.7-7.8-25.2-12.9-39.5-14.9c-25.3-3.5-50.4,3-70.7,18.4C131.9,350.3,123.5,410.3,155.3,452.3z M316.8,352l151.1-114.2
					l-1.2,7.2c0,0,0,0.1-0.1,0.2L319,356.8C318.3,355.1,317.6,353.6,316.8,352L316.8,352z"/>
			</g>
		</g>
	</g>
	<text transform="matrix(0.6029 0.7978 -0.7978 0.6029 222.7493 367.545)" class="st0 st1 st2">PK</text>
</g>
</svg>
